<svg width="66" height="16" viewBox="0 0 66 16" fill="none" xmlns="http://www.w3.org/2000/svg">
<path d="M6.38 14.42C6.38 14.5933 5.97333 14.7333 5.16 14.84C4.36 14.9467 3.54667 15 2.72 15C1.90667 15 1.38 14.9533 1.14 14.86C0.913333 14.7667 0.8 14.62 0.8 14.42V2.12C0.8 1.78667 1.18667 1.48667 1.96 1.22C2.73333 0.939999 3.57333 0.799999 4.48 0.799999C5.74667 0.799999 6.38 1.1 6.38 1.7V6.1H8.16V2.12C8.16 1.78667 8.54667 1.48667 9.32 1.22C10.1067 0.939999 10.9533 0.799999 11.86 0.799999C13.1133 0.799999 13.74 1.1 13.74 1.7V14.42C13.74 14.5933 13.3333 14.7333 12.52 14.84C11.7067 14.9467 10.8933 15 10.08 15C9.26667 15 8.74 14.9533 8.5 14.86C8.27333 14.7667 8.16 14.62 8.16 14.42V9.84H6.38V14.42ZM25.2213 15H16.7413C16.0879 15 15.6479 14.9533 15.4213 14.86C15.1946 14.7667 15.0813 14.62 15.0813 14.42V1.76C15.0813 1.41333 15.2346 1.16667 15.5413 1.02C15.8613 0.873332 16.4279 0.799999 17.2413 0.799999H25.2813C25.5613 0.799999 25.7013 1.26667 25.7013 2.2C25.7013 3.12 25.6413 3.82667 25.5213 4.32C25.4013 4.8 25.2413 5.04 25.0413 5.04C24.1746 5.04 22.7146 4.95333 20.6613 4.78V6.12C22.6346 6.04 23.9213 6 24.5213 6C24.8813 6 25.0613 6.42 25.0613 7.26C25.0613 8.1 24.9879 8.74 24.8412 9.18C24.7079 9.60667 24.5213 9.82 24.2812 9.82L20.6613 9.74V11.02C22.9813 10.8467 24.5813 10.76 25.4613 10.76C25.7413 10.76 25.8813 11.2267 25.8813 12.16C25.8813 13.0933 25.8213 13.8 25.7013 14.28C25.5813 14.76 25.4213 15 25.2213 15ZM32.6183 14.42C32.6183 14.5933 32.2049 14.7333 31.3783 14.84C30.5649 14.9467 29.7516 15 28.9383 15C28.1249 15 27.6049 14.9533 27.3783 14.86C27.1516 14.7667 27.0383 14.62 27.0383 14.42V2.14C27.0383 1.80667 27.4183 1.5 28.1783 1.22C28.9516 0.939999 29.8249 0.799999 30.7983 0.799999C31.1449 0.799999 31.4049 0.813333 31.5783 0.84C32.0316 0.906667 32.3516 1.19333 32.5383 1.7L34.4583 6.86H34.5383V2.14C34.5383 1.80667 34.9183 1.5 35.6783 1.22C36.4383 0.939999 37.3049 0.799999 38.2783 0.799999C39.1183 0.799999 39.6516 0.959999 39.8783 1.28C40.0383 1.50667 40.1183 1.71333 40.1183 1.9V14.42C40.1183 14.5933 39.7049 14.7333 38.8783 14.84C38.0649 14.9467 37.1649 15 36.1783 15C35.2049 15 34.6716 14.8733 34.5783 14.62L32.7183 9.7H32.6183V14.42ZM51.4958 14.86C50.9624 14.98 50.4158 15.06 49.8558 15.1C49.3091 15.1533 48.7691 15.18 48.2358 15.18C47.7158 15.18 47.3091 15.1667 47.0158 15.14C46.7358 15.1133 46.3624 15.0467 45.8958 14.94C45.4291 14.8333 45.0024 14.6867 44.6158 14.5C44.2291 14.3133 43.8158 14.04 43.3758 13.68C42.9491 13.32 42.5891 12.8933 42.2958 12.4C41.6158 11.2533 41.2758 9.77333 41.2758 7.96C41.2758 6.74667 41.4624 5.67333 41.8358 4.74C42.2224 3.80667 42.6824 3.08667 43.2158 2.58C43.7624 2.07333 44.3824 1.66667 45.0758 1.36C46.1958 0.853333 47.3224 0.599999 48.4558 0.599999C50.0824 0.599999 51.2491 0.733333 51.9558 0.999999C52.2758 1.12 52.5624 1.30667 52.8158 1.56C53.0691 1.81333 53.1958 2.18 53.1958 2.66C53.1958 3.14 53.0758 3.74667 52.8358 4.48C52.6091 5.21333 52.2758 5.58 51.8358 5.58C51.7024 5.58 51.2091 5.47333 50.3558 5.26C49.5024 5.04667 48.9224 4.94 48.6158 4.94C48.1491 4.94 47.7491 5.2 47.4158 5.72C47.0958 6.24 46.9358 6.98 46.9358 7.94C46.9358 8.9 47.0758 9.64667 47.3558 10.18C47.6491 10.7133 48.0291 10.98 48.4958 10.98C48.8291 10.98 49.4291 10.8467 50.2958 10.58C51.1758 10.3 51.6891 10.16 51.8358 10.16C52.2491 10.16 52.5691 10.54 52.7958 11.3C53.0358 12.06 53.1558 12.6733 53.1558 13.14C53.1558 13.6067 53.0091 13.98 52.7158 14.26C52.4358 14.5267 52.0291 14.7267 51.4958 14.86ZM64.4908 15H56.0108C55.3574 15 54.9174 14.9533 54.6908 14.86C54.4641 14.7667 54.3508 14.62 54.3508 14.42V1.76C54.3508 1.41333 54.5041 1.16667 54.8108 1.02C55.1308 0.873332 55.6974 0.799999 56.5108 0.799999H64.5508C64.8308 0.799999 64.9708 1.26667 64.9708 2.2C64.9708 3.12 64.9108 3.82667 64.7908 4.32C64.6708 4.8 64.5108 5.04 64.3108 5.04C63.4441 5.04 61.9841 4.95333 59.9308 4.78V6.12C61.9041 6.04 63.1908 6 63.7908 6C64.1508 6 64.3308 6.42 64.3308 7.26C64.3308 8.1 64.2574 8.74 64.1108 9.18C63.9774 9.60667 63.7908 9.82 63.5508 9.82L59.9308 9.74V11.02C62.2508 10.8467 63.8508 10.76 64.7308 10.76C65.0108 10.76 65.1508 11.2267 65.1508 12.16C65.1508 13.0933 65.0908 13.8 64.9708 14.28C64.8508 14.76 64.6908 15 64.4908 15Z" fill="black"/>
</svg>
